<svg width="64" height="64" viewBox="0 0 64 64" xmlns="http://www.w3.org/2000/svg">
  <defs>
    <linearGradient id="desertBush" x1="0%" y1="0%" x2="100%" y2="100%">
      <stop offset="0%" stop-color="#78909c"/>
      <stop offset="100%" stop-color="#546e7a"/>
    </linearGradient>
  </defs>

  <!-- Основной куст -->
  <path d="M25 45 Q32 30 39 45 Q35 48 29 48 Z" fill="url(#desertBush)"/>
  
  <!-- Ветви -->
  <g stroke="#8d6e63" stroke-width="1.2" stroke-linecap="round">
    <path d="M28 45 L25 40"/>
    <path d="M32 45 L32 38"/>
    <path d="M36 45 L39 40"/>
    <path d="M30 47 L28 50"/>
    <path d="M34 47 L36 50"/>
  </g>
  
  <!-- Листья -->
  <g fill="#4caf50" opacity="0.7">
    <ellipse cx="28" cy="40" rx="2" ry="1.5" transform="rotate(-20 28 40)"/>
    <ellipse cx="32" cy="38" rx="1.5" ry="2" transform="rotate(15 32 38)"/>
    <ellipse cx="36" cy="40" rx="2" ry="1.5" transform="rotate(20 36 40)"/>
  </g>
  
  <!-- Основание -->
  <ellipse cx="32" cy="50" rx="6" ry="2" fill="#8d6e63"/>
</svg>